<svg width="640" height="180" viewBox="0 0 640 180" fill="none" xmlns="http://www.w3.org/2000/svg" role="img" aria-labelledby="title desc">
  <title id="title">PalmLand logo concept 1 - Palm Tree and Land</title>
  <desc id="desc">A premium PalmLand logo with a palm tree rising from layered land lines.</desc>
  <rect x="16" y="18" width="608" height="144" rx="42" fill="#FEFAF6"/>
  <rect x="16.75" y="18.75" width="606.5" height="142.5" rx="41.25" stroke="#D4A373" stroke-opacity="0.42" stroke-width="1.5"/>
  <g transform="translate(54 38)">
    <rect x="0" y="0" width="104" height="104" rx="30" fill="#3C2F2F"/>
    <path d="M52.5 79.5C56.5 64 55.6 49.2 49.8 35.2" stroke="#FAEDCD" stroke-width="6" stroke-linecap="round"/>
    <path d="M49.2 35.8C35.8 35.4 26.4 40.5 21.1 51.1C35.1 52.2 44.5 47.1 49.2 35.8Z" fill="#588157"/>
    <path d="M51.2 34.9C53.8 21.4 48.8 12 36.2 6.6C33.1 20.4 38.1 29.8 51.2 34.9Z" fill="#D4A373"/>
    <path d="M53.1 35.3C65.8 25.4 78.7 23.3 91.8 29C81.9 39.9 69 42 53.1 35.3Z" fill="#FAEDCD"/>
    <path d="M53.7 35.9C68.1 34.6 78.9 39.8 86.1 51.5C72.1 53.5 61.3 48.3 53.7 35.9Z" fill="#588157"/>
    <path d="M22 82.5C38.1 74.9 58.1 74.9 82 82.5" stroke="#D4A373" stroke-width="5" stroke-linecap="round"/>
    <path d="M30 93C43.5 88.6 60.1 88.6 80 93" stroke="#588157" stroke-width="5" stroke-linecap="round"/>
  </g>
  <g transform="translate(190 61)">
    <text x="0" y="43" fill="#3C2F2F" font-family="Playfair Display, Georgia, serif" font-size="52" font-weight="700" letter-spacing="-2.4">PalmLand</text>
    <text x="3" y="78" fill="#588157" font-family="Inter, Arial, sans-serif" font-size="14" font-weight="700" letter-spacing="4.2">FLORIDA LAND INVESTMENTS</text>
  </g>
</svg>
